<?xml version="1.0" encoding="utf-8"?>
<!-- Generator: Adobe Illustrator 26.0.0, SVG Export Plug-In . SVG Version: 6.00 Build 0)  -->
<svg version="1.1" id="Camada_1" xmlns="http://www.w3.org/2000/svg" xmlns:xlink="http://www.w3.org/1999/xlink" x="0px" y="0px"
	 viewBox="0 0 80 80" style="enable-background:new 0 0 80 80;" xml:space="preserve">
<style type="text/css">
	.st0{fill:none;stroke:#171C2D;stroke-miterlimit:10;}
	.st1{fill:#171C2D;}
</style>
<g>
	<g>
		<g>
			<path class="st0" d="M73.6,40c0,7.2-2.3,13.9-6.2,19.4C61.3,68,51.3,73.6,40,73.6S18.7,68,12.6,59.4C8.7,53.9,6.4,47.2,6.4,40
				c0-18.5,15-33.6,33.6-33.6S73.6,21.5,73.6,40z"/>
		</g>
	</g>
	<g>
		<g>
			<ellipse class="st1" cx="40" cy="27.1" rx="13.7" ry="13.7"/>
		</g>
	</g>
	<g>
		<g>
			<path class="st1" d="M66.1,57.7c-0.1,0.2-0.2,0.3-0.4,0.5C59.8,66.6,50.2,71.5,40,71.5c-10.2,0-19.8-5-25.7-13.3
				c-0.1-0.2-0.2-0.3-0.4-0.5c6.2-7.6,15.6-12.5,26.1-12.5C50.5,45.2,59.9,50.1,66.1,57.7z"/>
		</g>
	</g>
</g>
</svg>
